<?xml version="1.0" encoding="iso-8859-1"?>
<!-- Uploaded to: SVG Repo, www.svgrepo.com, Generator: SVG Repo Mixer Tools -->
<svg fill="#000000" height="800px" width="800px" version="1.1" id="Layer_1" xmlns="http://www.w3.org/2000/svg" xmlns:xlink="http://www.w3.org/1999/xlink" 
	 viewBox="0 0 512 512" xml:space="preserve">
<g>
	<g>
		<g>
			<path d="M505.794,51.62L460.377,6.203c-3.999-3.999-9.327-6.202-15.003-6.202c-5.672,0-11.001,2.201-15.007,6.202L192.701,243.87
				c-2-2-4.713-3.124-7.543-3.124s-5.542,1.123-7.543,3.126l-37.71,37.712c-4.165,4.165-4.165,10.918-0.002,15.084l-83.98,83.98
				c-4.167-4.165-10.918-4.165-15.087,0L3.124,418.361c-4.165,4.165-4.165,10.92,0,15.089l75.424,75.424
				c2.084,2.081,4.814,3.124,7.545,3.124c2.73,0,5.459-1.042,7.543-3.124l37.714-37.714c4.165-4.165,4.165-10.92,0-15.087
				l83.979-83.979c2,2,4.713,3.124,7.543,3.124c2.829,0,5.542-1.123,7.543-3.124l37.714-37.714c4.165-4.165,4.165-10.92,0-15.087
				L505.8,81.628C514.069,73.355,514.067,59.895,505.794,51.62z M86.094,486.24l-60.337-60.337L48.38,403.28l60.337,60.337
				L86.094,486.24z M181.872,375.375l-3.911-3.907c-4.165-4.167-10.923-4.165-15.087,0.002c-4.165,4.167-4.165,10.923,0.002,15.089
				l3.907,3.905l-17.828,17.828l-25.624-25.622c-4.165-4.167-10.92-4.165-15.087,0.002c-4.167,4.165-4.167,10.92,0,15.087
				l25.624,25.62l-17.608,17.608l-45.25-45.25l83.979-83.979l45.25,45.25L181.872,375.375z M222.872,349.462l-60.335-60.337
				l22.621-22.623l60.337,60.337L222.872,349.462z M253.042,304.208l-45.252-45.25L445.373,21.375l45.252,45.252L253.042,304.208z"
				/>
			<path d="M140.831,349.823c-4.055,4.274-3.878,11.027,0.398,15.082l0.181,0.173c2.063,1.957,4.705,2.927,7.341,2.927
				c2.825,0,5.645-1.115,7.741-3.325c4.055-4.276,3.878-11.027-0.398-15.082l-0.181-0.173
				C151.637,345.367,144.884,345.547,140.831,349.823z"/>
		</g>
	</g>
</g>
</svg>